<svg width="570" height="375" xmlns="http://www.w3.org/2000/svg" xmlns:xlink="http://www.w3.org/1999/xlink" overflow="hidden"><defs><clipPath id="clip0"><rect x="375" y="119" width="570" height="375"/></clipPath></defs><g clip-path="url(#clip0)" transform="translate(-375 -119)"><rect x="0" y="0" width="47" height="46" stroke="#2E75B6" stroke-width="4" stroke-miterlimit="8" fill="none" transform="matrix(-1 0 0 1 848 238)"/><text fill="#FF0000" font-family="Calibri,Calibri_MSFontService,sans-serif" font-weight="700" font-size="24" transform="translate(819.5 269)">c</text><rect x="0" y="0" width="47" height="46" stroke="#2E75B6" stroke-width="4" stroke-miterlimit="8" fill="none" transform="matrix(-1 0 0 1 801 238)"/><rect x="0" y="0" width="47" height="46" stroke="#2E75B6" stroke-width="4" stroke-miterlimit="8" fill="none" transform="matrix(-1 0 0 1 754 238)"/><rect x="0" y="0" width="47" height="46" stroke="#2E75B6" stroke-width="4" stroke-miterlimit="8" fill="none" transform="matrix(-1 0 0 1 707 238)"/><rect x="0" y="0" width="47" height="46" stroke="#2E75B6" stroke-width="4" stroke-miterlimit="8" fill="none" transform="matrix(-1 0 0 1 660 238)"/><rect x="0" y="0" width="47" height="46" stroke="#2E75B6" stroke-width="4" stroke-miterlimit="8" fill="none" transform="matrix(-1 0 0 1 613 238)"/><rect x="0" y="0" width="47" height="46" stroke="#2E75B6" stroke-width="4" stroke-miterlimit="8" fill="none" transform="matrix(-1 0 0 1 566 238)"/><rect x="0" y="0" width="47" height="46" stroke="#2E75B6" stroke-width="4" stroke-miterlimit="8" fill="none" transform="matrix(-1 0 0 1 519 238)"/><text fill="#FF0000" font-family="Calibri,Calibri_MSFontService,sans-serif" font-weight="700" font-size="24" transform="translate(490.75 269)">s</text><rect x="0" y="0" width="47" height="46" stroke="#2E75B6" stroke-width="4" stroke-miterlimit="8" fill="none" transform="matrix(-1 0 0 1 472 238)"/><text fill="#FF0000" font-family="Calibri,Calibri_MSFontService,sans-serif" font-weight="700" font-size="24" transform="translate(443.75 269)">s</text><rect x="0" y="0" width="47" height="46" stroke="#2E75B6" stroke-width="4" stroke-miterlimit="8" fill="none" transform="matrix(-1 0 0 1 425 238)"/><text fill="#FF0000" font-family="Calibri,Calibri_MSFontService,sans-serif" font-weight="700" font-size="24" transform="translate(396.75 269)">s</text><path d="M519.5 292.5C519.5 300.232 518.455 306.5 517.167 306.5L451.333 306.5C450.045 306.5 449 312.768 449 320.5 449 312.768 447.955 306.5 446.667 306.5L380.833 306.5C379.545 306.5 378.5 300.232 378.5 292.5" stroke="#4472C4" stroke-width="0.666667" stroke-miterlimit="8" fill="none" fill-rule="evenodd"/><text font-family="DengXian,DengXian_MSFontService,sans-serif" font-weight="400" font-size="24" transform="matrix(0.749541 0.661958 -0.661958 0.749541 443.512 341)">选择位</text><path d="M801.5 291.5C801.5 299.508 800.418 306 799.083 306L662.917 306C661.582 306 660.5 312.492 660.5 320.5 660.5 312.492 659.418 306 658.083 306L521.917 306C520.582 306 519.5 299.508 519.5 291.5" stroke="#4472C4" stroke-width="0.666667" stroke-miterlimit="8" fill="none" fill-rule="evenodd"/><text font-family="DengXian,DengXian_MSFontService,sans-serif" font-weight="400" font-size="24" transform="matrix(0.780733 0.624865 -0.624865 0.780733 650.414 337)">指令位</text><text font-family="DengXian,DengXian_MSFontService,sans-serif" font-weight="400" font-size="24" transform="matrix(0.789218 0.614113 -0.614113 0.789218 820.013 333)">奇偶校验位</text><path d="M818.25 221.5 796.505 206.25 804.129 206.25C780.809 179.317 699.343 160.5 606.062 160.5L621.313 160.5C714.593 160.5 796.06 179.317 819.38 206.25L827.004 206.25Z" fill="#4472C4" fill-rule="evenodd"/><path d="M613.687 160.543C503.754 161.765 416.75 188.696 416.75 221.5L401.5 221.5C401.5 187.811 493.086 160.5 606.063 160.5 608.605 160.5 611.147 160.514 613.688 160.542Z" fill="#375C9E" fill-rule="evenodd"/><path d="M613.687 160.543C503.754 161.765 416.75 188.696 416.75 221.5L401.5 221.5C401.5 187.811 493.086 160.5 606.063 160.5L621.313 160.5C714.593 160.5 796.06 179.317 819.38 206.25L827.004 206.25 818.25 221.5 796.505 206.25 804.129 206.25C780.809 179.317 699.343 160.5 606.062 160.5" stroke="#2F528F" stroke-width="1.33333" stroke-miterlimit="8" fill="none" fill-rule="evenodd"/><path d="M412.75 384.5 434.496 399.75 426.871 399.75C450.191 426.683 531.657 445.5 624.938 445.5L609.688 445.5C516.407 445.5 434.941 426.683 411.621 399.75L403.996 399.75Z" fill="#4472C4" fill-rule="evenodd"/><path d="M617.313 445.458C727.246 444.235 814.25 417.305 814.25 384.5L829.5 384.5C829.5 418.189 737.914 445.5 624.937 445.5 622.395 445.5 619.853 445.486 617.312 445.458Z" fill="#375C9E" fill-rule="evenodd"/><path d="M617.313 445.458C727.246 444.235 814.25 417.305 814.25 384.5L829.5 384.5C829.5 418.189 737.914 445.5 624.937 445.5L609.688 445.5C516.407 445.5 434.941 426.683 411.621 399.75L403.996 399.75 412.75 384.5 434.496 399.75 426.871 399.75C450.191 426.683 531.657 445.5 624.938 445.5" stroke="#2F528F" stroke-width="1.33333" stroke-miterlimit="8" fill="none" fill-rule="evenodd"/><text font-family="DengXian,DengXian_MSFontService,sans-serif" font-weight="400" font-size="24" transform="translate(564.438 148)">决定方式<tspan font-size="24" x="12.3373" y="324">进行校验</tspan></text></g></svg>